<?xml version="1.0" encoding="UTF-8"?>
<svg version="1.1" xmlns="http://www.w3.org/2000/svg" width="777" height="218">
<path d="M0 0 C256.41 0 512.82 0 777 0 C777 71.94 777 143.88 777 218 C520.59 218 264.18 218 0 218 C0 146.06 0 74.12 0 0 Z " fill="#FEFEFE" transform="translate(0,0)"/>
<path d="M0 0 C8.69451556 5.40502936 15.69028521 13.18950999 18.4375 23.25 C20.50026457 36.18283852 19.6076166 47.98186218 11.8125 58.75 C8.61508584 62.61728278 4.97054527 65.47714763 0.953125 68.44921875 C-3.65912889 72.11134834 -4.03465874 75.20795243 -5 81 C-15.56 81 -26.12 81 -37 81 C-37.66 78.36 -38.32 75.72 -39 73 C-41.08113411 70.41636938 -41.08113411 70.41636938 -44 68 C-53.23845918 59.31484236 -59.56205626 51.77640169 -60.37109375 38.703125 C-60.71097413 26.41829212 -58.92424262 17.31882008 -50.8125 7.625 C-37.09374953 -6.59677132 -17.3195013 -9.45538686 0 0 Z " fill="#FDFDFD" transform="translate(116,77)"/>
<path d="M0 0 C0.82886719 0.00829834 1.65773437 0.01659668 2.51171875 0.02514648 C14.81944984 0.36183578 25.77731908 4.91264515 34.7890625 13.421875 C38.44350334 17.43398452 41.19184284 21.63104916 43.6875 26.4375 C44.02910156 27.08589844 44.37070313 27.73429687 44.72265625 28.40234375 C49.22951258 37.90870873 49.21509295 51.23486494 46.5 61.265625 C42.81877396 71.10582537 36.54962448 80.55393188 27.6875 86.4375 C27.0275 86.4375 26.3675 86.4375 25.6875 86.4375 C25.6781543 87.27410156 25.66880859 88.11070312 25.65917969 88.97265625 C25.6148582 92.11166015 25.55310805 95.24972868 25.47998047 98.38818359 C25.43826728 100.4004854 25.41621469 102.41316395 25.39453125 104.42578125 C25.17110075 113.31831501 24.58341265 119.40724553 18.30859375 125.8984375 C12.56098765 128.3413251 6.92853431 128.09426624 0.75 128.0625 C-0.49974609 128.09472656 -1.74949219 128.12695312 -3.03710938 128.16015625 C-13.27913692 128.17103466 -13.27913692 128.17103466 -17.56640625 124.6484375 C-21.62218342 120.55014694 -22.5578242 116.99334031 -22.65625 111.28125 C-22.68589844 110.09402344 -22.71554688 108.90679687 -22.74609375 107.68359375 C-22.79036458 105.18619792 -22.83463542 102.68880208 -22.87890625 100.19140625 C-22.90855469 99.00417969 -22.93820313 97.81695312 -22.96875 96.59375 C-22.99678711 94.96663086 -22.99678711 94.96663086 -23.02539062 93.30664062 C-23.30948799 90.46759964 -23.78378249 88.8190917 -25.3125 86.4375 C-27.2467347 84.84603796 -27.2467347 84.84603796 -29.5 83.375 C-38.79079593 76.41812382 -43.94275364 65.27491466 -45.96484375 54.04296875 C-47.74869408 40.67411294 -44.70193367 29.69087418 -37.3125 18.4375 C-27.89573099 6.75373104 -15.04781187 -0.19645067 0 0 Z M-31.703125 23.140625 C-39.18810543 33.8230728 -39.94780543 45.70609231 -37.8359375 58.2734375 C-34.86924837 68.46026161 -27.30594236 76.10984995 -19.5 82.875 C-17.3125 85.4375 -17.3125 85.4375 -15.3125 93.4375 C-4.7525 93.4375 5.8075 93.4375 16.6875 93.4375 C17.3475 90.7975 18.0075 88.1575 18.6875 85.4375 C20.83449683 82.8350796 23.19962652 80.83626006 25.8046875 78.70703125 C33.54202872 72.18109193 38.34237859 65.38294669 40.6875 55.4375 C41.7359316 42.96524871 40.50751506 31.94073418 32.828125 21.79296875 C25.35120094 13.56562348 15.7352064 7.87755497 4.56640625 7.0625 C-10.52435573 6.4236137 -21.99883869 11.2996151 -31.703125 23.140625 Z " fill="#0F0F0F" transform="translate(94.3125,64.5625)"/>
<path d="M0 0 C24.41463415 0 24.41463415 0 31.0625 5.5625 C33.65848527 10.16828033 33.92407017 13.82520705 33 19 C31.00342873 22.85544798 29.60292362 24.59805092 26 27 C27.46256658 31.1363211 29.51844637 34.45421154 32 38.0625 C34.22295411 41.30294598 36.35437297 44.42590379 38 48 C33.95606474 49.19675454 31.00502472 49.42753356 27 48 C24.0500732 44.75891159 21.94961516 40.97915939 19.8815918 37.13500977 C19.46047119 36.36987061 19.03935059 35.60473145 18.60546875 34.81640625 C18.24606201 34.10943604 17.88665527 33.40246582 17.51635742 32.67407227 C15.69074052 30.31050879 15.69074052 30.31050879 10 30 C10 35.94 10 41.88 10 48 C6.7 48 3.4 48 0 48 C0 32.16 0 16.32 0 0 Z " fill="#080808" transform="translate(431,92)"/>
<path d="M0 0 C2.64947757 1.08985602 4.62783344 2.34979717 7 4 C7.78375 3.34 8.5675 2.68 9.375 2 C13.64026671 -0.81992751 18.06029368 -0.95271483 23 0 C26.11593195 1.69902929 28.38899662 3.77799325 30 7 C30.08573394 9.25120742 30.10712188 11.50499303 30.09765625 13.7578125 C30.0962413 14.42086395 30.09482635 15.08391541 30.09336853 15.76705933 C30.08776754 17.88641863 30.075215 20.00567259 30.0625 22.125 C30.05748512 23.56119639 30.05292219 24.99739444 30.04882812 26.43359375 C30.03779782 29.95576345 30.02053259 33.47787145 30 37 C26.7 37 23.4 37 20 37 C19.67 27.76 19.34 18.52 19 9 C16.36 9 13.72 9 11 9 C8.74129892 12.38805161 8.70740587 13.77350741 8.5859375 17.76171875 C8.54726563 18.87998047 8.50859375 19.99824219 8.46875 21.15039062 C8.4378125 22.31763672 8.406875 23.48488281 8.375 24.6875 C8.33632813 25.86634766 8.29765625 27.04519531 8.2578125 28.25976562 C8.16345609 31.17301977 8.07786839 34.08626607 8 37 C4.7 37 1.4 37 -2 37 C-2.01981934 36.25838623 -2.03963867 35.51677246 -2.06005859 34.75268555 C-2.15522928 31.39726166 -2.26494094 28.04246714 -2.375 24.6875 C-2.4059375 23.52025391 -2.436875 22.35300781 -2.46875 21.15039062 C-2.50742187 20.03212891 -2.54609375 18.91386719 -2.5859375 17.76171875 C-2.6173584 16.73006592 -2.6487793 15.69841309 -2.68115234 14.63549805 C-2.82674629 11.77156764 -2.82674629 11.77156764 -5 9 C-7.95746492 8.41654524 -7.95746492 8.41654524 -11 9 C-14.01552901 12.04347933 -14.40004127 14.44155179 -14.51171875 18.640625 C-14.54716797 19.71054688 -14.58261719 20.78046875 -14.61914062 21.8828125 C-14.65297852 23.54957031 -14.65297852 23.54957031 -14.6875 25.25 C-14.72166016 26.37664062 -14.75582031 27.50328125 -14.79101562 28.6640625 C-14.87343014 31.44260901 -14.94260298 34.22084252 -15 37 C-18.3 37 -21.6 37 -25 37 C-25 25.12 -25 13.24 -25 1 C-22.36 1 -19.72 1 -17 1 C-16.34 1.99 -15.68 2.98 -15 4 C-14.071875 3.01 -14.071875 3.01 -13.125 2 C-8.74489198 -0.80326913 -5.07465986 -0.81951029 0 0 Z " fill="#060606" transform="translate(582,103)"/>
<path d="M0 0 C2.40085343 1.09861538 3.95748184 2.27998471 6 4 C8.49361571 2.79618552 10.68143083 1.54571278 13 0 C17.57098437 -0.5965522 21.73074222 -0.52885741 26 1.25 C29.13340048 3.99172542 29.93141663 6.0309833 30.22705078 10.20800781 C30.21657715 11.44389648 30.20610352 12.67978516 30.1953125 13.953125 C30.1924826 14.61334656 30.18965271 15.27356812 30.18673706 15.95379639 C30.17558415 18.05271897 30.15048946 20.15120742 30.125 22.25 C30.11496384 23.67707715 30.1058391 25.10416102 30.09765625 26.53125 C30.07566111 30.02097328 30.04116536 33.51044423 30 37 C26.7 37 23.4 37 20 37 C19.97494385 36.18732666 19.9498877 35.37465332 19.92407227 34.53735352 C19.80850882 30.87889248 19.68560416 27.22071472 19.5625 23.5625 C19.52318359 22.28310547 19.48386719 21.00371094 19.44335938 19.68554688 C19.40146484 18.47060547 19.35957031 17.25566406 19.31640625 16.00390625 C19.26141968 14.31503296 19.26141968 14.31503296 19.20532227 12.59204102 C19.28781955 10.07146559 19.28781955 10.07146559 18 9 C15.32941149 8.85884839 12.67567762 8.95752893 10 9 C8.96285478 12.11143567 8.79968139 14.49468096 8.68359375 17.76171875 C8.62075195 19.43911133 8.62075195 19.43911133 8.55664062 21.15039062 C8.51732422 22.31763672 8.47800781 23.48488281 8.4375 24.6875 C8.37272461 26.45577148 8.37272461 26.45577148 8.30664062 28.25976562 C8.20048824 31.17305883 8.09843758 34.08643757 8 37 C4.7 37 1.4 37 -2 37 C-2.01981934 36.22285645 -2.03963867 35.44571289 -2.06005859 34.64501953 C-2.15507009 31.13799309 -2.26484559 27.63158206 -2.375 24.125 C-2.4059375 22.90167969 -2.436875 21.67835937 -2.46875 20.41796875 C-2.50742187 19.25136719 -2.54609375 18.08476563 -2.5859375 16.8828125 C-2.6173584 15.80402832 -2.6487793 14.72524414 -2.68115234 13.61376953 C-2.74676322 10.84238346 -2.74676322 10.84238346 -5 9 C-7.95746492 8.41654524 -7.95746492 8.41654524 -11 9 C-13.65475182 12.49136774 -14.39057687 15.18265178 -14.51171875 19.51953125 C-14.54716797 20.54111328 -14.58261719 21.56269531 -14.61914062 22.61523438 C-14.65297852 24.19788086 -14.65297852 24.19788086 -14.6875 25.8125 C-14.72166016 26.88693359 -14.75582031 27.96136719 -14.79101562 29.06835938 C-14.87325843 31.71187813 -14.93831193 34.35592174 -15 37 C-18.3 37 -21.6 37 -25 37 C-25 25.12 -25 13.24 -25 1 C-22.36 1 -19.72 1 -17 1 C-16.34 1.99 -15.68 2.98 -15 4 C-14.071875 3.01 -14.071875 3.01 -13.125 2 C-8.76195889 -0.79234631 -5.05632602 -0.83868885 0 0 Z " fill="#070707" transform="translate(273,103)"/>
<path d="M0 0 C3.3 0 6.6 0 10 0 C10 6.27 10 12.54 10 19 C16.27 19 22.54 19 29 19 C29 12.73 29 6.46 29 0 C32.3 0 35.6 0 39 0 C39 15.84 39 31.68 39 48 C35.7 48 32.4 48 29 48 C29 41.07 29 34.14 29 27 C22.73 27 16.46 27 10 27 C10 33.93 10 40.86 10 48 C6.7 48 3.4 48 0 48 C0 32.16 0 16.32 0 0 Z " fill="#060606" transform="translate(701,92)"/>
<path d="M0 0 C3.7229703 2.6592645 6.55543557 5.73587115 8.625 9.875 C10.00305069 25.12077597 10.00305069 25.12077597 5.9375 30.75 C2.74119844 34.43359301 -0.69533745 35.69421029 -5.49609375 36.2109375 C-16.65938469 36.34242503 -16.65938469 36.34242503 -21.375 31.875 C-26.00539639 26.74848971 -26.84214955 21.36622855 -26.6796875 14.66015625 C-26.11605038 9.50793486 -24.45090615 5.87763887 -20.71484375 2.2734375 C-14.39175597 -2.37474612 -7.28115141 -2.42705047 0 0 Z " fill="#070707" transform="translate(498.375,104.125)"/>
<path d="M0 0 C4.36775158 3.14884416 7.96773395 6.77820184 9.6875 11.9375 C10.39133161 19.07966007 10.01986568 25.03099502 5.6875 30.9375 C-0.00891079 36.2270243 -4.183952 36.34768897 -11.8125 36.27734375 C-16.56961621 35.81543626 -19.26651938 34.60395816 -22.3125 30.9375 C-26.46352307 24.64401342 -26.10337621 17.25749867 -25.3125 9.9375 C-20.39246725 -0.63145925 -10.6639728 -3.42051958 0 0 Z " fill="#060606" transform="translate(539.3125,104.0625)"/>
<path d="M0 0 C3.32285026 2.0725859 5.15195125 4.83609749 6.859375 8.27734375 C7.19995117 11.4152832 7.19995117 11.4152832 7.15234375 14.890625 C7.1378418 16.76137695 7.1378418 16.76137695 7.12304688 18.66992188 C7.09791016 19.96349609 7.07277344 21.25707031 7.046875 22.58984375 C7.02657227 24.55920898 7.02657227 24.55920898 7.00585938 26.56835938 C6.97054943 29.80510452 6.9212278 33.0410148 6.859375 36.27734375 C3.48046875 36.40234375 3.48046875 36.40234375 -0.140625 36.27734375 C-2.078125 34.27734375 -2.078125 34.27734375 -3.140625 32.27734375 C-3.90375 32.91671875 -4.666875 33.55609375 -5.453125 34.21484375 C-9.6520596 37.43728193 -12.93773498 37.71826663 -18.140625 37.27734375 C-21.56865209 35.53099033 -23.58008067 34.24555668 -25.515625 30.90234375 C-26.63402576 26.20506056 -26.71069916 23.41749208 -24.515625 19.02734375 C-21.73048936 15.80244985 -20.21843509 15.31621442 -16.140625 14.27734375 C-12.7109375 14.08203125 -12.7109375 14.08203125 -9.265625 14.15234375 C-8.11320312 14.17039062 -6.96078125 14.1884375 -5.7734375 14.20703125 C-4.90460938 14.23023437 -4.03578125 14.2534375 -3.140625 14.27734375 C-4.10838598 10.48186454 -4.10838598 10.48186454 -6.140625 7.27734375 C-10.9621833 6.99372267 -14.64555381 7.52316963 -19.140625 9.27734375 C-20.703125 6.96484375 -20.703125 6.96484375 -22.140625 4.27734375 C-21.140625 1.27734375 -21.140625 1.27734375 -19.01171875 0.11328125 C-13.153053 -1.59250714 -5.83601856 -1.97018875 0 0 Z " fill="#090909" transform="translate(337.140625,103.72265625)"/>
<path d="M0 0 C0.86625 0.495 1.7325 0.99 2.625 1.5 C1.635 3.81 0.645 6.12 -0.375 8.5 C-1.36242187 8.41621094 -2.34984375 8.33242187 -3.3671875 8.24609375 C-4.64851563 8.14425781 -5.92984375 8.04242188 -7.25 7.9375 C-8.52617187 7.83308594 -9.80234375 7.72867188 -11.1171875 7.62109375 C-14.26143942 7.24316633 -14.26143942 7.24316633 -16.375 8.5 C-16.375 10.81 -16.375 13.12 -16.375 15.5 C-15.715 15.7475 -15.055 15.995 -14.375 16.25 C-0.63815789 21.97368421 -0.63815789 21.97368421 2.625 28.5 C3.06040712 32.76196588 3.09565428 36.41749516 1.375 40.375 C-1.25164708 43.56450003 -3.45219596 45.19239865 -7.375 46.5 C-9.81026603 46.62162188 -12.24922867 46.67544129 -14.6875 46.6875 C-15.98300781 46.70167969 -17.27851563 46.71585938 -18.61328125 46.73046875 C-22.2412588 46.50819391 -25.0082728 45.82059222 -28.375 44.5 C-28.375 41.53 -28.375 38.56 -28.375 35.5 C-25.61223823 36.02268466 -23.0489124 36.60869587 -20.375 37.5 C-18.50186336 37.59338218 -16.62545638 37.62994843 -14.75 37.625 C-13.76773438 37.62757813 -12.78546875 37.63015625 -11.7734375 37.6328125 C-9.42274989 37.77005965 -9.42274989 37.77005965 -8.375 36.5 C-7.62157483 34.17484501 -7.62157483 34.17484501 -8.375 31.5 C-10.83091511 29.47067064 -13.58908647 28.02873234 -16.375 26.5 C-25.67581301 20.59756098 -25.67581301 20.59756098 -27.375 15.5 C-27.87747331 11.73145017 -28.21218859 8.08730956 -26.3984375 4.6484375 C-20.14033356 -3.14539747 -8.92836818 -3.86834843 0 0 Z " fill="#070707" transform="translate(237.375,93.5)"/>
<path d="M0 0 C11.88 0 23.76 0 36 0 C36 2.97 36 5.94 36 9 C31.71 9 27.42 9 23 9 C23 21.87 23 34.74 23 48 C19.7 48 16.4 48 13 48 C13 35.13 13 22.26 13 9 C8.71 9 4.42 9 0 9 C0 6.03 0 3.06 0 0 Z " fill="#070707" transform="translate(658,92)"/>
<path d="M0 0 C2.31 0 4.62 0 7 0 C7 2.64 7 5.28 7 8 C10.3 8 13.6 8 17 8 C17 10.31 17 12.62 17 15 C13.7 15 10.4 15 7 15 C7.14014682 18.3128323 7.28683615 21.62514408 7.4375 24.9375 C7.47681641 25.88302734 7.51613281 26.82855469 7.55664062 27.80273438 C7.61948242 29.15141602 7.61948242 29.15141602 7.68359375 30.52734375 C7.72025146 31.35999756 7.75690918 32.19265137 7.79467773 33.05053711 C7.79367103 35.00338858 7.79367103 35.00338858 9 36 C10.51928038 36.07179964 12.04167482 36.08392007 13.5625 36.0625 C14.38878906 36.05347656 15.21507812 36.04445312 16.06640625 36.03515625 C16.70449219 36.02355469 17.34257812 36.01195312 18 36 C18 38.31 18 40.62 18 43 C13.57146276 45.21426862 7.80791809 44.54215681 3 44 C-0.55423623 41.47102422 -1.63748421 40.08754738 -3 36 C-3.08143855 34.37280518 -3.1075302 32.74248281 -3.09765625 31.11328125 C-3.09443359 30.17548828 -3.09121094 29.23769531 -3.08789062 28.27148438 C-3.07951172 27.29501953 -3.07113281 26.31855469 -3.0625 25.3125 C-3.05798828 24.32443359 -3.05347656 23.33636719 -3.04882812 22.31835938 C-3.03704303 19.87884526 -3.02059011 17.43945311 -3 15 C-4.32 15 -5.64 15 -7 15 C-7 13.35 -7 11.7 -7 10 C-6.21625 9.835 -5.4325 9.67 -4.625 9.5 C-1.8906529 8.29603101 -1.8906529 8.29603101 -1.22265625 6.0859375 C-0.73586948 4.07483301 -0.36146745 2.037362 0 0 Z " fill="#050505" transform="translate(388,96)"/>
<path d="M0 0 C3.63 0 7.26 0 11 0 C11 15.84 11 31.68 11 48 C7.37 48 3.74 48 0 48 C0 32.16 0 16.32 0 0 Z " fill="#171717" transform="translate(640,92)"/>
<path d="M0 0 C0 2.97 0 5.94 0 9 C-2.24609375 9.42317708 -4.4921875 9.84635417 -6.73828125 10.26953125 C-9.37325232 11.12054954 -10.30637607 11.82350296 -12 14 C-12.5040817 16.50873159 -12.5040817 16.50873159 -12.51171875 19.32421875 C-12.54716797 20.35224609 -12.58261719 21.38027344 -12.61914062 22.43945312 C-12.65297852 24.04723633 -12.65297852 24.04723633 -12.6875 25.6875 C-12.72166016 26.77095703 -12.75582031 27.85441406 -12.79101562 28.97070312 C-12.8735375 31.64676977 -12.93844386 34.32336903 -13 37 C-16.3 37 -19.6 37 -23 37 C-23 25.12 -23 13.24 -23 1 C-20.36 1 -17.72 1 -15 1 C-14.34 2.32 -13.68 3.64 -13 5 C-12.154375 4.175 -11.30875 3.35 -10.4375 2.5 C-7.03972892 -0.3787798 -4.43607134 -0.44360713 0 0 Z " fill="#040404" transform="translate(377,103)"/>
<path d="M0 0 C3.63326668 0.60554445 4.74144325 1.6558915 7 4.5 C8.97902533 8.45805066 8.38205977 13.17748541 7.1875 17.3125 C5.06835067 21.21619614 5.06835067 21.21619614 3 22.5 C-0.5 22.5 -0.5 22.5 -4 21.5 C-6.82712542 17.85020067 -7.43172772 15.00337448 -7.4375 10.4375 C-7.45683594 9.41527344 -7.47617187 8.39304687 -7.49609375 7.33984375 C-6.69601374 2.75985819 -4.53669172 0.75611529 0 0 Z " fill="#F5F5F5" transform="translate(531,110.5)"/>
<path d="M0 0 C4.04628473 0.72255085 5.02276178 1.43080731 7.5 4.625 C7.99609375 7.46484375 7.99609375 7.46484375 7.9375 10.5625 C7.93621094 11.58214844 7.93492187 12.60179688 7.93359375 13.65234375 C7.4418031 17.02398956 6.57540119 18.93466513 4.5 21.625 C1.0625 22.6875 1.0625 22.6875 -2.5 22.625 C-4.91094674 20.9119589 -6.08881816 19.58442429 -7.25 16.875 C-7.84218567 11.54532899 -8.12828486 8.03235809 -5.9375 3.125 C-3.5 0.625 -3.5 0.625 0 0 Z " fill="#F5F5F5" transform="translate(489.5,110.375)"/>
<path d="M0 0 C10.56 0 21.12 0 32 0 C31.67 1.65 31.34 3.3 31 5 C26.33938611 8.10707593 21.54441488 7.36858465 16.0625 7.375 C14.96486328 7.39949219 13.86722656 7.42398438 12.73632812 7.44921875 C11.15174805 7.45501953 11.15174805 7.45501953 9.53515625 7.4609375 C8.569729 7.46915527 7.60430176 7.47737305 6.60961914 7.48583984 C3.25316639 6.86095997 2.05381084 5.68041262 0 3 C0 2.01 0 1.02 0 0 Z " fill="#FAFAFA" transform="translate(79,178)"/>
<path d="M0 0 C8.17817372 -0.36080178 8.17817372 -0.36080178 11.5625 1.125 C13 3 13 3 13.5625 5.9375 C13 9 13 9 11 11.375 C7.00223382 13.54045668 4.49937346 13.30504227 0 13 C0 8.71 0 4.42 0 0 Z " fill="#EBEBEB" transform="translate(441,101)"/>
<path d="M0 0 C1.67542976 0.28604898 3.34385343 0.61781233 5 1 C4.72040757 7.43062599 2.36915109 13.19586705 -2 18 C-4.640625 18.34765625 -4.640625 18.34765625 -7 18 C-8 17 -8 17 -8.27734375 14.796875 C-7.92003933 11.19363604 -6.57193446 9.24191449 -4.5625 6.25 C-3.92441406 5.28578125 -3.28632812 4.3215625 -2.62890625 3.328125 C-1 1 -1 1 0 0 Z " fill="#101010" transform="translate(128,46)"/>
<path d="M0 0 C2.32421875 0.109375 2.32421875 0.109375 5 1 C7.01953125 3.328125 7.01953125 3.328125 8.8125 6.25 C9.71935547 7.68085937 9.71935547 7.68085937 10.64453125 9.140625 C12.0427053 12.09008727 12.38160692 13.78766711 12 17 C11 18 11 18 8.67578125 18.41796875 C6 18 6 18 3.98046875 15.55078125 C3.09294922 13.94783203 3.09294922 13.94783203 2.1875 12.3125 C1.58292969 11.25675781 0.97835937 10.20101562 0.35546875 9.11328125 C-0.97468389 6.0581468 -1.39541455 4.27544888 -1 1 C-0.67 0.67 -0.34 0.34 0 0 Z " fill="#101010" transform="translate(59,46)"/>
<path d="M0 0 C2.5 0.125 2.5 0.125 3.5 1.125 C3.62663091 3.94916382 3.68520548 6.73794793 3.6875 9.5625 C3.69974609 10.35205078 3.71199219 11.14160156 3.72460938 11.95507812 C3.72987279 14.01307435 3.62206285 16.07062009 3.5 18.125 C2.84 18.785 2.18 19.445 1.5 20.125 C-2.03571429 19.58928571 -2.03571429 19.58928571 -3.5 18.125 C-3.59986975 15.28164952 -3.63877881 12.46802837 -3.625 9.625 C-3.62886719 8.82707031 -3.63273437 8.02914062 -3.63671875 7.20703125 C-3.62479041 0.18123952 -3.62479041 0.18123952 0 0 Z " fill="#0D0D0D" transform="translate(95.5,36.875)"/>
<path d="M0 0 C10.56 0 21.12 0 32 0 C32 1.32 32 2.64 32 4 C21.44 4 10.88 4 0 4 C0 2.68 0 1.36 0 0 Z " fill="#F9F9F9" transform="translate(79,166)"/>
<path d="M0 0 C0.763125 0.20625 1.52625 0.4125 2.3125 0.625 C2.56640625 2.921875 2.56640625 2.921875 2.3125 5.625 C-2.1249582 10.1731431 -7.43472249 12.35892436 -13.6875 12.625 C-14.0175 10.975 -14.3475 9.325 -14.6875 7.625 C-2.6875 -0.375 -2.6875 -0.375 0 0 Z " fill="#0E0E0E" transform="translate(155.6875,71.375)"/>
<path d="M0 0 C3.92211323 0.46626521 6.85356644 1.77722123 10.25 3.75 C11.12140625 4.23984375 11.9928125 4.7296875 12.890625 5.234375 C15 7 15 7 15.859375 9.640625 C15.90578125 10.41921875 15.9521875 11.1978125 16 12 C15 13 15 13 12.2734375 13.26171875 C8.46820491 12.95748178 6.72371969 11.99463143 3.625 9.8125 C2.75101563 9.22082031 1.87703125 8.62914063 0.9765625 8.01953125 C-1 6 -1 6 -1.3515625 3.32421875 C-1 1 -1 1 0 0 Z " fill="#0F0F0F" transform="translate(34,71)"/>
<path d="M0 0 C4.95 0 9.9 0 15 0 C15.33 1.65 15.66 3.3 16 5 C14 7 14 7 11.03125 7.265625 C9.8659375 7.26046875 8.700625 7.2553125 7.5 7.25 C6.3346875 7.25515625 5.169375 7.2603125 3.96875 7.265625 C1 7 1 7 -1 5 C-0.67 3.35 -0.34 1.7 0 0 Z " fill="#0F0F0F" transform="translate(152,106)"/>
<path d="M0 0 C4.95 0 9.9 0 15 0 C15.33 1.65 15.66 3.3 16 5 C14 7 14 7 11.03125 7.265625 C9.8659375 7.26046875 8.700625 7.2553125 7.5 7.25 C6.3346875 7.25515625 5.169375 7.2603125 3.96875 7.265625 C1 7 1 7 -1 5 C-0.67 3.35 -0.34 1.7 0 0 Z " fill="#0F0F0F" transform="translate(24,106)"/>
<path d="M0 0 C0.31785906 3.49644963 0.39644605 5.397402 -1.5625 8.375 C-4.84011302 10.56007535 -7.14202645 10.36395977 -11 10 C-12 9 -12 9 -12.3125 6.125 C-12 3 -12 3 -10.5 1.125 C-6.87739877 -0.50517055 -3.95453342 -0.19772667 0 0 Z " fill="#F1F1F1" transform="translate(334,123)"/>
</svg>
